<?xml version="1.0" encoding="UTF-8"?>
<svg width="270px" height="156px" viewBox="0 0 270 156" version="1.1" xmlns="http://www.w3.org/2000/svg" xmlns:xlink="http://www.w3.org/1999/xlink">
    <!-- Generator: sketchtool 62 (101010) - https://sketch.com -->
    <title>91CD0950-3070-4F2F-8FAE-7A344B5C87BA</title>
    <desc>Created with sketchtool.</desc>
    <g id="Page-1" stroke="none" stroke-width="1" fill="none" fill-rule="evenodd">
        <g id="Home-Page-Copy" transform="translate(-585.000000, -222.000000)" fill="#FFFFFF">
            <g id="Group-6-Copy" transform="translate(585.000000, 222.364289)">
                <path d="M111.788671,16.8268108 C110.75527,17.9630335 110.032062,19.2167667 109.6346,20.54308 C109.228498,21.8944506 109.138637,23.3460508 109.372794,24.8555421 C109.607815,26.3650335 110.134884,27.7172681 110.930672,28.8776842 L110.96437,28.927799 L110.966962,28.9303911 L110.998932,28.9779137 L111.00498,28.9839621 L111.034358,29.0271645 L111.042998,29.0383971 L111.070648,29.0764152 L111.08188,29.091968 L111.106938,29.12653 L111.119898,29.1429469 L111.143228,29.1757807 L111.158781,29.1965178 L111.181246,29.2250314 L111.199391,29.2483607 L111.240001,29.3002035 L111.255554,29.3209407 L111.278883,29.3537745 L111.292708,29.3701914 L111.321222,29.4056174 L111.330726,29.417714 L111.361832,29.4557321 L111.370472,29.4652367 L111.40417,29.507575 L111.40849,29.5136233 L111.445644,29.5576898 L111.487983,29.6078045 L111.488847,29.6078045 L111.528593,29.6544631 L111.531185,29.6587833 L111.567475,29.7002576 L111.574388,29.7088981 L111.608949,29.7486443 L111.61759,29.7581488 L111.650424,29.7944388 L111.66252,29.8073996 L111.691034,29.8393693 L111.707451,29.8575143 L111.732508,29.8851638 L111.750653,29.906765 L111.774847,29.9309584 L111.797312,29.9542877 L111.816321,29.9750248 L111.843106,30.0018103 L111.860387,30.0216834 L111.888037,30.051061 L111.901862,30.0648858 L111.933831,30.0985836 L111.945928,30.1098163 L111.982218,30.1461063 L111.989994,30.1538827 L112.028013,30.1919008 L112.034061,30.1979491 L112.077263,30.2394234 L112.078127,30.2420156 L112.123058,30.286082 L112.124786,30.286082 L112.167988,30.3275563 L112.172309,30.3318765 L112.214647,30.3716227 L112.221559,30.3785351 L112.258713,30.4148251 L112.27081,30.4243296 L112.305372,30.4562994 L112.320925,30.4692601 L112.351166,30.4986377 L112.37104,30.5159187 L112.399553,30.5409761 L112.419426,30.5608492 L112.445348,30.5824504 L112.472133,30.6049156 L112.49287,30.6230606 L112.522248,30.648982 L112.540393,30.6653989 L112.574091,30.6921844 L112.589644,30.7060092 L112.625934,30.7371149 L112.637166,30.7466194 L112.677776,30.7803173 L112.686417,30.7872297 L112.730483,30.8235197 L112.734804,30.8278399 L112.784054,30.865858 L112.784054,30.8675861 L112.834169,30.9064682 L112.835897,30.9090604 L112.885148,30.9453504 L112.890332,30.9496706 L112.935263,30.9842325 L112.944767,30.992873 L112.986242,31.0239787 L113.000066,31.0334833 L113.03722,31.0628609 L113.054501,31.0758216 L113.088199,31.100879 L113.108936,31.1164318 L113.139178,31.138033 L113.165099,31.1570421 L113.191885,31.1760511 L113.221262,31.1976523 L113.244592,31.2140692 L113.27829,31.2382626 L113.298163,31.2520873 L113.334453,31.2771447 L113.350006,31.2883773 L113.39148,31.3168909 L113.402713,31.3263954 L113.447643,31.354909 L113.456283,31.3609573 L113.506398,31.3946552 L113.510718,31.3972473 L113.564289,31.4344014 L113.565153,31.4344014 L113.619588,31.4706914 L113.623045,31.4715554 L113.674888,31.5035252 L113.680936,31.5095735 L113.729323,31.5406793 L113.741419,31.5475916 L113.785486,31.5735131 L113.801903,31.5856097 L113.840785,31.608939 L113.849425,31.6141233 L113.858066,31.6201717 L113.866706,31.6244919 L113.873619,31.6288121 L113.883123,31.6339964 L113.890035,31.6400448 L113.898676,31.6435009 L113.907316,31.6478212 L113.915093,31.6538695 L113.923733,31.6599178 L113.932374,31.663374 L113.989401,31.6988 L113.998041,31.7031202 L114.013594,31.7126248 L114.021371,31.717809 L114.046428,31.7316338 L114.055933,31.7376821 L114.072349,31.7480507 L114.080126,31.7515069 L114.088766,31.7575552 L114.097407,31.7618755 L114.106047,31.7670598 L121.358,35.9516428 L137.483722,45.2548446 L153.218031,54.3489467 L160.830291,58.7434934 L160.84066,58.7478136 L160.847572,58.7529979 L160.857077,58.7573182 L160.864853,58.7633665 L160.875222,58.7685508 L160.882998,58.7745991 L160.893367,58.7797834 L160.902871,58.7841036 L160.911512,58.7892879 L160.919288,58.7953363 L160.929657,58.7996565 L160.938297,58.8065689 L160.94521,58.8108891 L160.946938,58.8108891 L160.955578,58.8160734 L160.964219,58.8221217 L160.974587,58.8255779 L160.983228,58.8316263 L160.991868,58.8376746 L161.000509,58.8428589 L161.009149,58.8471791 L161.019518,58.8523634 L161.027294,58.8584117 L161.035935,58.863596 L161.045439,58.8696444 L161.054944,58.8739646 L161.059264,58.8774208 L161.063584,58.8791489 L161.072225,58.8843332 L161.082593,58.8903815 L161.09037,58.8955658 L161.09901,58.899886 L161.108515,58.9076625 L161.117155,58.9119827 C163.45354,60.31174 165.363086,62.0934064 166.805181,64.1973626 L166.864801,64.2854954 L166.875169,64.2993202 L166.92442,64.3736283 L166.943429,64.40387 L166.983175,64.4617612 L167.012553,64.5075557 L167.04193,64.5516221 L167.079084,64.6103774 L167.099822,64.6414831 L167.14648,64.7157912 L167.156849,64.731344 L167.213012,64.820341 L167.268311,64.91193 L167.27868,64.9257548 L167.324474,65.002655 L167.342619,65.0320326 L167.378909,65.09338 L167.406559,65.1383105 L167.433344,65.1849691 L167.469634,65.2463165 L167.486915,65.2774222 L167.531845,65.3543224 L167.54135,65.3698753 L167.593193,65.4623284 L167.594921,65.4631925 L167.6459,65.5556456 L167.652812,65.5694703 L167.696879,65.6480987 L167.715888,65.6792044 L167.748721,65.7422799 L167.773779,65.7880744 L167.798836,65.835597 L167.832534,65.8986725 L167.849815,65.9306423 L167.890425,66.0092706 L167.898202,66.0256875 L167.945724,66.1198687 L167.947452,66.1215968 L167.996703,66.2166421 L168.002751,66.2321949 L168.043362,66.3116873 L168.058051,66.342793 L168.09002,66.4084607 L168.114214,66.4559833 L168.138407,66.505234 L168.166921,66.5674454 L168.185066,66.6028714 L168.220492,66.6814997 L168.229132,66.6996447 L168.274062,66.7964181 L168.274062,66.7972821 L168.317265,66.8957836 L168.324177,66.9113364 L168.362195,66.993421 L168.37602,67.0245267 L168.40367,67.0910583 L168.426999,67.1403091 L168.446872,67.1912879 L168.473657,67.2552274 L168.48921,67.2906534 L168.522908,67.3718739 L168.531549,67.3908829 L168.570431,67.4893843 L168.572159,67.4902484 L168.612769,67.591342 L168.617953,67.6051667 L168.652515,67.6924356 L168.663748,67.7226772 L168.690533,67.7926651 L168.710407,67.8410518 L168.729416,67.8937587 L168.754473,67.9594263 L168.767434,67.9957163 L168.798539,68.0786649 L168.805452,68.098538 L168.840878,68.1979035 L168.841742,68.2004956 L168.878032,68.3024532 L168.88408,68.316278 L168.914322,68.406139 L168.926419,68.4363806 L168.949748,68.5098247 L168.967029,68.5590754 L168.98431,68.6135104 L169.005911,68.679178 L169.018008,68.7171961 L169.045657,68.8010088 L169.051705,68.8217459 L169.084539,68.9237035 L169.105276,68.9910993 L169.117373,69.0317095 L169.121693,69.0463983 L169.149343,69.1353952 L169.157983,69.1690931 L169.179584,69.2416731 L169.194273,69.2917879 L169.21069,69.347951 L169.229699,69.4153467 L169.240932,69.4542288 L169.265125,69.5397696 L169.270309,69.5613708 L169.298823,69.6641924 L169.298823,69.6685127 L169.328201,69.7747905 L169.330793,69.7894793 L169.354122,69.8827965 L169.363627,69.9147663 L169.382636,69.9908025 L169.393868,70.0409172 L169.409421,70.0988084 L169.42411,70.1670682 L169.434479,70.2076784 L169.455216,70.2949473 L169.459536,70.3165485 L169.482865,70.4219623 L169.484593,70.4262825 L169.508787,70.5351525 C169.592599,70.9231099 169.666907,71.3179798 169.728255,71.7171698 C170.165463,74.5235968 169.992653,77.2315223 169.234019,79.7631821 C168.465881,82.3181712 167.117103,84.6822057 165.211877,86.7783855 C164.527552,87.530971 161.328847,90.8998931 155.257184,93.6579334 C152.247706,94.9989354 149.080971,96.0444331 145.788949,96.7598646 C142.424347,97.489985 138.93273,97.8762143 135.352117,97.8762143 C121.839274,97.8762143 109.605223,92.3972877 100.748734,83.5416627 C91.8922447,74.6851737 86.4141822,62.449394 86.4141822,48.93828 C86.4141822,45.7473518 86.719191,42.6264114 87.3032873,39.6065647 C88.2476915,34.7169187 89.9196238,30.0856229 92.2015738,25.831052 C92.2551447,26.3857706 92.3251326,26.9370331 92.4098093,27.4891595 C92.9990898,31.2762807 94.3279952,34.8767675 96.4198547,38.0841126 C96.5269966,38.2491457 96.6384588,38.4141788 96.7499209,38.5766198 C99.0318709,41.9083878 102.033573,44.6119931 105.526054,46.6295445 L107.748384,47.9117913 L116.712015,53.0874371 C117.512123,56.6939722 119.331808,59.9168702 121.851371,62.4381614 C125.305834,65.890032 130.079697,68.0294142 135.352117,68.0294142 C137.346339,68.0294142 139.270573,67.7226772 141.077297,67.1558619 L150.044384,72.3315077 C146.89925,74.3093129 143.327277,75.6736443 139.498682,76.2499641 C138.146447,76.4547434 136.761378,76.5592932 135.352117,76.5592932 C127.724303,76.5592932 120.818834,73.4668664 115.821182,68.4692144 C113.149547,65.7975789 111.023125,62.5824574 109.62164,59.0027077 L109.62164,59.0009796 L101.193718,54.136391 C98.9463302,52.8385913 96.8536067,51.3204595 94.9501096,49.5958203 C95.1246472,60.49319 99.6133751,70.3424699 106.779787,77.5097457 C114.090494,84.8204534 124.192076,89.3446072 135.352117,89.3446072 C136.098654,89.3446072 136.838279,89.32387 137.573583,89.2849879 C141.276892,89.0836648 144.848001,88.3846502 148.218651,87.2527477 C152.36608,85.8607668 155.966567,84.289064 158.914698,81.0462929 C159.948099,79.9100702 160.671307,78.657201 161.069633,77.3291597 C161.475735,75.9786531 161.564732,74.527053 161.331439,73.0175616 C161.095554,71.5097983 160.568485,70.1558356 159.772697,68.9962835 L159.738999,68.9461688 L159.704437,68.8977821 L159.704437,68.896054 L159.669875,68.8476673 L159.632721,68.7984166 L159.596431,68.7491659 L159.596431,68.7474378 L159.560141,68.6990511 L159.522123,68.6515285 L159.522123,68.6498004 L159.485833,68.6014137 L159.485833,68.6005497 L159.447815,68.5530271 C158.807556,67.7339098 158.013496,67.0089738 157.085509,66.4041404 L157.03021,66.3687145 L157.028482,66.3687145 L156.975775,66.3341525 L156.974911,66.3341525 L156.919611,66.2987266 L156.864312,66.2641647 L156.855672,66.2598444 L156.847031,66.2546602 L156.843575,66.251204 L156.839255,66.2486118 L156.830615,66.2442916 L156.822838,66.2399713 L156.815062,66.2347871 L156.805557,66.2287387 L156.798645,66.2244185 L156.790004,66.2192342 L156.781364,66.214914 L156.781364,66.2140499 L156.773587,66.2097297 L156.764947,66.2054094 L156.756306,66.2002252 L156.749394,66.1941768 L156.740754,66.1898566 L156.731249,66.1855363 L156.724337,66.1803521 L156.720881,66.178624 L156.715696,66.1743037 L156.707056,66.1699835 L156.699279,66.1665273 L156.690639,66.160479 L156.681998,66.1544306 L156.673358,66.1509744 L156.665581,66.1466542 L156.659533,66.142334 L156.656941,66.1406059 L156.648301,66.1354216 L156.63966,66.1311013 L156.63102,66.1267811 L156.623243,66.1215968 L156.616331,66.1155485 L156.605962,66.1120923 L156.597322,66.107772 L149.348825,61.9214609 L117.106021,43.306417 L109.860981,39.1226979 L109.85234,39.1183777 L109.844564,39.1123294 L109.835924,39.1088732 L109.827283,39.1028248 L109.817779,39.0985046 L109.809138,39.0933203 L109.800498,39.087272 L109.791857,39.0829517 L109.784081,39.0777675 L109.748655,39.0578944 L109.740014,39.0527101 L109.732238,39.0483898 L109.723597,39.0432056 L109.715821,39.0371572 L109.70718,39.032837 L109.671754,39.0138279 L109.663978,39.0077796 L109.655338,39.0025953 L109.646697,38.9982751 L109.638057,38.9922267 L109.63028,38.9870425 L109.62164,38.9827222 L109.612999,38.9775379 L109.605223,38.9714896 L109.594854,38.9671694 L109.586214,38.9619851 L109.517954,38.9213748 L109.477344,38.8963174 L109.405628,38.8505229 L109.369338,38.8297858 L109.292438,38.7822631 L109.261332,38.76239 L109.180111,38.7122753 L109.15419,38.6941303 L109.070377,38.6414234 L109.047912,38.6267346 L108.959779,38.5714355 L108.941634,38.5584748 L108.850045,38.4979914 L108.83622,38.4884869 L108.741175,38.4271395 L108.730807,38.4202272 L108.633169,38.3536955 L108.627121,38.3485112 L108.525163,38.2802514 L108.522571,38.2785233 L108.420613,38.2068074 L108.418885,38.2059433 L108.317792,38.1359555 L108.312607,38.1316352 L108.217562,38.0625114 L108.20633,38.055599 L108.115605,37.9899314 L108.100916,37.9804269 L108.015375,37.9173514 L107.99723,37.9035266 L107.916874,37.8430433 L107.894408,37.8266264 L107.816644,37.7670071 L107.792451,37.747998 L107.718143,37.6918349 L107.689629,37.6710978 L107.620505,37.6175268 L107.588535,37.5907413 L107.522868,37.5406266 L107.487442,37.512113 L107.426094,37.4637263 L107.387212,37.4326206 L107.331049,37.3868261 L107.288711,37.3514001 L107.236004,37.3081977 L107.190209,37.2701796 L107.140959,37.2312975 L107.091708,37.1889592 L107.046778,37.1509411 L106.994071,37.1068746 L106.95346,37.0723127 L106.899025,37.023926 L106.860143,36.9919563 L106.802252,36.9401134 L106.769418,36.9124639 L106.707207,36.8580289 L106.676965,36.8303794 L106.613026,36.7716241 L106.587968,36.7500229 L106.518844,36.6869474 L106.496379,36.6670743 L106.426391,36.6014067 L106.406518,36.5841258 L106.334802,36.515866 L106.318385,36.5020412 L106.242349,36.4294612 L106.230252,36.4173646 L106.15076,36.3421924 L106.143848,36.3335519 L106.061763,36.2540595 L106.057443,36.2497393 L105.971902,36.1641986 L105.970174,36.1641986 L105.884633,36.0786579 L105.882041,36.0760657 L105.800821,35.9922531 L105.795636,35.9870688 L105.717008,35.9058483 L105.708368,35.8972078 L105.633195,35.8185795 L105.620235,35.8056188 L105.550247,35.7304466 L105.534694,35.7148938 L105.468162,35.6431778 L105.450881,35.6241688 L105.386942,35.5541809 L105.365341,35.5317156 L105.306585,35.4643199 L105.281528,35.4383985 L105.225365,35.375323 L105.199444,35.3442173 L105.146737,35.2854621 L105.116495,35.2500361 L105.067244,35.193873 L105.035274,35.1567189 L104.988616,35.103148 L104.954054,35.0616737 L104.91258,35.012423 L104.874562,34.9657644 L104.834815,34.9199699 L104.794205,34.8689911 L104.759643,34.8257887 L104.715577,34.7739458 L104.683607,34.7341996 L104.637813,34.6763084 L104.609299,34.6400184 L104.560912,34.577807 L104.534991,34.5458372 L104.483148,34.4801696 L104.461547,34.450792 L104.407976,34.3825322 L104.388103,34.3557467 L104.333668,34.2831667 L104.317251,34.2607015 L104.25936,34.1838012 L104.244671,34.1647922 L104.185052,34.0827076 L104.173819,34.0671548 L104.112471,33.9816141 L104.103831,33.9703814 L104.039891,33.8813845 L104.035571,33.872744 L103.969904,33.7794269 L103.967311,33.7751066 L103.898188,33.6766052 L103.838568,33.5902004 L103.838568,33.5884723 L103.778949,33.5020676 L103.778949,33.5003456 L103.721058,33.4139347 L103.721058,33.4122066 L103.663167,33.3258018 L103.662303,33.3223456 L103.548248,33.147808 L103.54652,33.1434878 L103.435922,32.967222 L103.435058,32.9629018 L103.380623,32.875633 L103.378895,32.8713127 L103.326188,32.784908 L103.32446,32.7805877 L103.218182,32.6017299 L103.216454,32.5974096 C103.073886,32.3520201 102.934774,32.1014462 102.805167,31.8482803 L102.757645,31.7584193 L102.755917,31.753235 L102.710122,31.663374 L102.708394,31.6581898 L102.661735,31.5674647 L102.660871,31.5614164 L102.614213,31.4706914 L102.613349,31.4646431 L102.568418,31.3739181 L102.567554,31.3695978 C102.491518,31.2088849 102.414618,31.046444 102.342902,30.884003 L102.342902,30.8814109 L102.257361,30.6861361 L102.256497,30.6835439 L102.215887,30.5867706 L102.214159,30.5841784 L102.173548,30.4882692 L102.172684,30.484813 L102.132938,30.3863115 L102.13121,30.3837194 L102.051718,30.1849884 L102.051718,30.1832603 L102.012836,30.0838948 L102.012836,30.0813027 L101.973953,29.9819372 L101.973953,29.9810731 L101.935935,29.8799796 L101.935935,29.8782515 L101.897917,29.7780219 L101.861627,29.6752003 L101.861627,29.6743362 L101.825337,29.5715145 L101.789047,29.4695569 L101.789047,29.4678288 L101.753621,29.3658712 L101.753621,29.3650071 L101.719923,29.2613214 L101.719059,29.2613214 L101.685361,29.1576357 L101.651664,29.0522219 L101.61883,28.9494002 L101.617966,28.9476721 L101.58686,28.8439864 L101.585996,28.8422583 L101.55489,28.7377085 L101.523785,28.6322947 L101.493543,28.5268808 L101.462437,28.4197389 L101.434788,28.3134611 L101.43306,28.3134611 L101.404546,28.2071832 L101.403682,28.2054551 L101.376896,28.0991772 L101.375168,28.0974491 L101.349247,27.9911713 L101.349247,27.9894432 L101.322461,27.8831653 L101.321597,27.8831653 L101.293948,27.7760234 L101.293948,27.7742953 L101.26889,27.6680174 L101.26889,27.6662893 L101.243833,27.5582834 L101.218776,27.4494133 L101.194582,27.3405433 L101.19199,27.3232624 L101.191126,27.3223983 L101.186806,27.3025252 L101.182486,27.2852443 L101.179894,27.2662352 L101.175573,27.2480902 L101.171253,27.2316733 L101.166933,27.2118002 L101.164341,27.1962474 L101.162613,27.1936552 L101.16002,27.1755102 L101.157428,27.1573652 L101.153108,27.1392202 L101.148788,27.1210752 L101.144468,27.1020662 L101.141875,27.0839212 L101.137555,27.0675043 L101.137555,27.0649121 L101.133235,27.0476312 L101.130643,27.0286221 L101.126323,27.0096131 L101.122002,26.9923321 L101.11941,26.9733231 L101.11509,26.9551781 L101.112498,26.9387611 L101.112498,26.936169 L101.108178,26.9188881 L101.103857,26.899879 L101.101265,26.88087 L101.098673,26.8627249 L101.094353,26.8437159 L101.091761,26.8264349 L101.08744,26.8082899 L101.08744,26.8065618 L101.08312,26.7884168 L101.079664,26.7702718 L101.076208,26.7521268 L101.073616,26.7322537 L101.069295,26.7141087 L101.065839,26.6968278 L101.063247,26.6778187 L101.059791,26.6588097 L101.056335,26.6398006 L101.052015,26.6225197 L101.049422,26.6043747 L101.04683,26.5845016 L101.043374,26.5654925 L101.039918,26.5490756 L101.039918,26.5482116 L101.037326,26.5300666 L101.033005,26.5101935 L101.029549,26.4920485 L101.026957,26.4721754 L101.022637,26.4557585 L101.020045,26.4358854 L101.017453,26.4177404 L101.01486,26.3978673 L101.01054,26.3797223 L101.008812,26.3615773 L101.005356,26.3425682 L101.0019,26.3235592 L100.999308,26.3054142 L100.994987,26.2872692 L100.993259,26.2682601 L100.988939,26.2492511 L100.986347,26.230242 L100.983755,26.212097 L100.981163,26.193952 L100.977706,26.1740789 L100.975114,26.1559339 C100.537906,23.350371 100.710716,20.6415814 101.46935,18.1099216 C103.58281,11.0757092 109.026311,7.08121662 115.447913,4.21862655 C118.455664,2.87676045 121.624991,1.83039867 124.917876,1.11410312 C128.279022,0.384846851 131.770639,0.000345619085 135.352117,0.000345619085 C148.862367,0.000345619085 161.09901,5.47840812 169.954635,14.3348972 C178.811124,23.1905222 184.289187,35.4254378 184.289187,48.93828 C184.289187,52.1283441 183.985042,55.2475564 183.400946,58.2674031 C182.457406,63.1579132 180.785473,67.7883448 178.501795,72.0429158 C178.448224,71.4890612 178.378236,70.9360707 178.29356,70.3856723 C177.704279,66.595959 176.375374,62.9980643 174.283514,59.7907192 C174.176372,59.6256861 174.06491,59.4597889 173.953448,59.2964839 C171.667178,55.9612598 168.659428,53.2559264 165.162627,51.2366469 L162.955849,49.9613124 L153.989626,44.7856666 C153.190382,41.1791315 151.370697,37.9579616 148.851998,35.4383985 C145.396671,31.9839357 140.623672,29.8462817 135.352117,29.8462817 C133.359623,29.8462817 131.438844,30.1530186 129.632985,30.7189699 L120.662441,25.54246 C123.809303,23.5629267 127.383004,22.1994594 131.215056,21.6240037 C132.564699,21.4209525 133.946311,21.3164027 135.352117,21.3164027 C142.979066,21.3164027 149.885399,24.4088294 154.883051,29.4073455 C157.552958,32.0763888 159.67938,35.2923744 161.082593,38.870396 L169.495826,43.7298003 C171.749262,45.0293281 173.845442,46.549188 175.753259,48.2772835 C175.578722,37.3816418 171.090858,27.5323619 163.924446,20.3659502 C156.612011,13.0552425 146.510429,8.53195273 135.352117,8.53195273 C134.607307,8.53195273 133.867683,8.55096178 133.131514,8.59070798 C129.428205,8.79203109 125.858824,9.49018164 122.485582,10.6220841 C118.345929,12.013201 114.732482,13.5883599 111.788671,16.8268108" id="Fill-1"></path>
                <path d="M24.0529018,146.915548 C24.0529018,140.702633 18.2925835,139.71515 12.7379908,138.645376 C7.88286535,137.740183 3.93293277,136.876136 3.93293277,133.214219 C3.93293277,128.605964 9.2817998,127.37161 12.6557005,127.37161 C15.9061659,127.412755 19.2800666,127.906497 21.3784683,131.280398 L23.1888541,130.210624 C20.34984,125.972676 16.7702136,125.314354 12.6557005,125.314354 C7.92401048,125.314354 1.5876603,127.20703 1.71109569,133.296509 C1.71109569,138.604231 7.10110786,139.674005 12.3676846,140.702633 C17.0993747,141.607826 21.8722099,142.554164 21.8310648,146.874402 C21.8310648,151.976399 16.1941818,152.963882 12.6557005,152.963882 C9.11721928,152.963882 4.59125486,151.235786 2.82201423,147.73845 L0.847047941,148.725933 C3.06888502,153.128462 8.17088126,154.979993 12.6557005,154.979993 C17.4696809,154.979993 24.0117567,153.416478 24.0529018,146.915548 Z M64.9888304,154.527397 L64.9888304,152.38785 L46.8026825,152.38785 L46.8026825,141.031794 L63.6721862,141.031794 L63.6721862,139.015682 L46.8026825,139.015682 L46.8026825,127.824207 L64.4950888,127.824207 L64.4950888,125.725805 L44.6219905,125.725805 L44.6219905,154.527397 L64.9888304,154.527397 Z M95.3093151,154.527397 C105.389872,154.527397 110.080417,147.121273 109.915837,139.79744 C109.751256,132.720477 105.060711,125.725805 95.3093151,125.725805 L85.557919,125.725805 L85.557919,125.725805 L85.557919,154.527397 L95.3093151,154.527397 L95.3093151,154.527397 Z M95.3093151,152.38785 L87.7797561,152.38785 L87.7797561,127.824207 L95.3093151,127.824207 C103.620632,127.824207 107.570564,133.790251 107.694,139.79744 C107.817435,145.96921 103.867502,152.38785 95.3093151,152.38785 Z M151.180926,154.527397 L151.180926,152.38785 L132.994778,152.38785 L132.994778,141.031794 L149.864282,141.031794 L149.864282,139.015682 L132.994778,139.015682 L132.994778,127.824207 L150.687185,127.824207 L150.687185,125.725805 L130.814086,125.725805 L130.814086,154.527397 L151.180926,154.527397 Z M190.388759,154.527397 L190.388759,152.428995 L174.177578,152.428995 L174.177578,125.725805 L171.955741,125.725805 L171.955741,154.527397 L190.388759,154.527397 Z M228.897125,154.527397 L228.897125,152.428995 L212.685943,152.428995 L212.685943,125.725805 L210.464106,125.725805 L210.464106,154.527397 L228.897125,154.527397 Z M269.339312,154.527397 L269.339312,152.38785 L251.153164,152.38785 L251.153164,141.031794 L268.022668,141.031794 L268.022668,139.015682 L251.153164,139.015682 L251.153164,127.824207 L268.84557,127.824207 L268.84557,125.725805 L248.972472,125.725805 L248.972472,154.527397 L269.339312,154.527397 Z" id="SEDELLE" fill-rule="nonzero"></path>
            </g>
        </g>
    </g>
</svg>